<svg width="41" height="40" viewBox="0 0 41 40" fill="none" xmlns="http://www.w3.org/2000/svg">
<g id="google 1">
<path id="Vector" d="M36.8427 16.7358H35.5002V16.6666H20.5002V23.3333H29.9193C28.5452 27.2141 24.8527 29.9999 20.5002 29.9999C14.9777 29.9999 10.5002 25.5224 10.5002 19.9999C10.5002 14.4774 14.9777 9.99992 20.5002 9.99992C23.0493 9.99992 25.3685 10.9616 27.1343 12.5324L31.8485 7.81825C28.8718 5.04409 24.8902 3.33325 20.5002 3.33325C11.296 3.33325 3.8335 10.7958 3.8335 19.9999C3.8335 29.2041 11.296 36.6666 20.5002 36.6666C29.7043 36.6666 37.1668 29.2041 37.1668 19.9999C37.1668 18.8824 37.0518 17.7916 36.8427 16.7358Z" fill="#FFC107"/>
<path id="Vector_2" d="M5.75488 12.2424L11.2307 16.2583C12.7124 12.5899 16.3007 9.99992 20.4999 9.99992C23.0491 9.99992 25.3682 10.9616 27.1341 12.5324L31.8482 7.81825C28.8716 5.04409 24.8899 3.33325 20.4999 3.33325C14.0982 3.33325 8.54655 6.94742 5.75488 12.2424Z" fill="#FF3D00"/>
<path id="Vector_3" d="M20.5001 36.6668C24.8051 36.6668 28.7168 35.0192 31.6743 32.3401L26.5159 27.9751C24.8426 29.2426 22.7626 30.0001 20.5001 30.0001C16.1651 30.0001 12.4843 27.2359 11.0976 23.3784L5.6626 27.5659C8.42093 32.9634 14.0226 36.6668 20.5001 36.6668Z" fill="#4CAF50"/>
<path id="Vector_4" d="M36.8425 16.7359H35.5V16.6667H20.5V23.3334H29.9192C29.2592 25.1976 28.06 26.8051 26.5133 27.9759C26.5142 27.9751 26.515 27.9751 26.5158 27.9742L31.6742 32.3392C31.3092 32.6709 37.1667 28.3334 37.1667 20.0001C37.1667 18.8826 37.0517 17.7917 36.8425 16.7359Z" fill="#1976D2"/>
</g>
</svg>
