<svg width="41" height="40" viewBox="0 0 41 40" fill="none" xmlns="http://www.w3.org/2000/svg">
<g id="facebook 1" clip-path="url(#clip0_487_245)">
<path id="Vector" d="M40.3095 19.9047C40.3095 8.91165 31.3978 0 20.4047 0C9.41165 0 0.5 8.91165 0.5 19.9047C0.5 30.8978 9.41165 39.8095 20.4047 39.8095C31.3978 39.8095 40.3095 30.8978 40.3095 19.9047Z" fill="#337FFF"/>
<path id="Vector_2" d="M25.2752 21.2005L25.8424 17.5967H22.3484V15.2542C22.3484 14.2688 22.8362 13.3059 24.396 13.3059H26.0069V10.237C25.0688 10.0874 24.1209 10.0065 23.1708 9.99487C20.2952 9.99487 18.4177 11.7236 18.4177 14.8488V17.5967H15.23V21.2005H18.4177V29.9173H22.3484V21.2005H25.2752Z" fill="white"/>
</g>
<defs>
<clipPath id="clip0_487_245">
<rect width="40" height="40" fill="white" transform="translate(0.5)"/>
</clipPath>
</defs>
</svg>
